<svg width="21" height="20" viewBox="0 0 21 20" xmlns="http://www.w3.org/2000/svg">
    <path d="M20.1196 18.3129L16.4118 14.6329C17.851 12.8373 18.548 10.5582 18.3594 8.26415C18.1708 5.97016 17.111 3.83564 15.3979 2.2995C13.6848 0.76336 11.4485 -0.0576363 9.14901 0.00532409C6.8495 0.0682845 4.66148 1.01042 3.03487 2.638C1.40825 4.26558 0.466683 6.45489 0.40376 8.75578C0.340837 11.0567 1.16134 13.2942 2.69657 15.0084C4.2318 16.7225 6.36505 17.783 8.65768 17.9717C10.9503 18.1604 13.2281 17.463 15.0226 16.0229L18.7004 19.7029C18.7933 19.7966 18.9039 19.871 19.0256 19.9217C19.1474 19.9725 19.2781 19.9987 19.41 19.9987C19.5419 19.9987 19.6726 19.9725 19.7943 19.9217C19.9161 19.871 20.0267 19.7966 20.1196 19.7029C20.2997 19.5164 20.4004 19.2672 20.4004 19.0079C20.4004 18.7485 20.2997 18.4993 20.1196 18.3129ZM9.41593 16.0229C8.03229 16.0229 6.67971 15.6123 5.52925 14.8431C4.37879 14.074 3.48212 12.9807 2.95262 11.7016C2.42312 10.4226 2.28458 9.01509 2.55451 7.65722C2.82445 6.29935 3.49074 5.05207 4.46912 4.07311C5.44751 3.09414 6.69405 2.42745 8.05111 2.15736C9.40817 1.88726 10.8148 2.02588 12.0931 2.5557C13.3714 3.08551 14.464 3.98272 15.2328 5.13386C16.0015 6.28501 16.4118 7.63838 16.4118 9.02285C16.4118 10.8794 15.6747 12.6598 14.3627 13.9726C13.0508 15.2854 11.2713 16.0229 9.41593 16.0229Z" />
</svg>
