<svg xmlns="http://www.w3.org/2000/svg" viewBox="0 0 20 21">
    <path d="M 11.759 0.548 C 11.601 0.579, 11.430 0.675, 11.321 0.795 C 11.280 0.840, 3.483 11.633, 3.415 11.738 C 3.251 11.994, 3.258 12.350, 3.432 12.620 C 3.561 12.819, 3.752 12.946, 3.983 12.986 C 4.053 12.998, 4.365 13, 6.198 13 C 7.370 13, 8.330 13.003, 8.330 13.006 C 8.330 13.009, 8.085 14.475, 7.786 16.266 C 7.254 19.450, 7.242 19.523, 7.243 19.647 C 7.244 19.845, 7.288 19.978, 7.402 20.129 C 7.527 20.295, 7.716 20.411, 7.923 20.450 C 8.034 20.471, 8.222 20.463, 8.315 20.434 C 8.467 20.386, 8.626 20.276, 8.722 20.153 C 8.789 20.069, 16.536 9.338, 16.576 9.275 C 16.702 9.079, 16.737 8.821, 16.670 8.596 C 16.596 8.348, 16.406 8.144, 16.163 8.052 C 16.018 7.997, 16.116 8, 13.802 8 C 12.630 8, 11.670 7.997, 11.670 7.995 C 11.670 7.992, 11.915 6.525, 12.214 4.735 C 12.734 1.622, 12.758 1.474, 12.757 1.358 C 12.757 1.222, 12.742 1.144, 12.696 1.035 C 12.593 0.792, 12.353 0.603, 12.082 0.551 C 12.004 0.536, 11.828 0.534, 11.759 0.548"
          fill-rule="evenodd"/>
</svg>
